<svg width="150" height="100" viewBox="0 0 176 120" fill="none" xmlns="http://www.w3.org/2000/svg">
<path d="M65.9739 64.7786V90.9078C65.9739 101.278 57.5339 109.686 47.1237 109.686H45.217L35.4805 119.38C35.0992 119.759 34.5717 120 33.987 120C33.4467 120 32.9574 119.804 32.5824 119.475L32.4172 119.31L32.4108 119.304L22.7569 109.686H20.8439C10.44 109.686 2 101.278 2 90.9078V64.7786C2 54.4079 10.44 46 20.8503 46H47.1237C57.5339 46 65.9739 54.4079 65.9739 64.7786Z" fill="#FFD666"/>
<path d="M16.8951 82.197C15.0393 82.197 13.9816 84.3037 15.0583 85.8248C19.245 91.7501 26.1679 95.6134 33.9902 95.6134C41.8124 95.6134 48.729 91.7438 52.9157 85.8248C53.9924 84.3037 52.9347 82.197 51.0788 82.197H16.8951Z" fill="white"/>
<path d="M27.7641 73.2297H16.5659V67.6035C16.5659 64.4976 19.0741 61.9773 22.165 61.9773C25.2559 61.9773 27.7641 64.4976 27.7641 67.6035V73.2297Z" fill="white"/>
<path d="M51.415 73.2297H40.2168V67.6035C40.2168 64.4976 42.725 61.9773 45.8159 61.9773C48.9068 61.9773 51.415 64.4976 51.415 67.6035V73.2297Z" fill="white"/>
<path d="M0.9 36L4.932 10.62H13.932C18.204 10.62 21.492 11.604 23.796 13.572C26.124 15.54 27.288 18.264 27.288 21.744C27.312 24.456 26.76 26.892 25.632 29.052C24.504 31.212 22.836 32.916 20.628 34.164C18.444 35.388 15.756 36 12.564 36H0.9ZM8.352 30.636H12.636C15.204 30.636 17.136 29.844 18.432 28.26C19.752 26.676 20.412 24.54 20.412 21.852C20.412 19.956 19.872 18.504 18.792 17.496C17.712 16.488 16.092 15.984 13.932 15.984H10.692L8.352 30.636ZM38.7768 36.396C36.8808 36.396 35.2248 36.06 33.8088 35.388C32.3928 34.692 31.2888 33.72 30.4968 32.472C29.7048 31.224 29.3088 29.772 29.3088 28.116C29.3088 26.076 29.7528 24.288 30.6408 22.752C31.5528 21.216 32.7768 20.028 34.3128 19.188C35.8488 18.324 37.5768 17.892 39.4968 17.892C41.5128 17.892 43.1328 18.324 44.3568 19.188C45.6048 20.028 46.4688 21.18 46.9488 22.644C47.4288 24.108 47.5488 25.728 47.3088 27.504L47.1648 28.44H35.2488C35.2968 29.496 35.6928 30.3 36.4368 30.852C37.1808 31.404 38.2008 31.68 39.4968 31.68C40.4808 31.68 41.4408 31.548 42.3768 31.284C43.3368 30.996 44.1648 30.6 44.8608 30.096L46.1928 34.272C45.3048 34.944 44.2128 35.472 42.9168 35.856C41.6448 36.216 40.2648 36.396 38.7768 36.396ZM39.4248 22.068C38.3448 22.068 37.4928 22.392 36.8688 23.04C36.2688 23.688 35.8608 24.48 35.6448 25.416H42.4488C42.4968 24.432 42.2688 23.628 41.7648 23.004C41.2848 22.38 40.5048 22.068 39.4248 22.068ZM56.5487 36.396C54.9887 36.396 53.4887 36.228 52.0487 35.892C50.6327 35.556 49.4327 35.04 48.4487 34.344L50.2127 30.276C51.1007 30.828 52.1087 31.272 53.2367 31.608C54.3887 31.92 55.4807 32.076 56.5127 32.076C57.4487 32.076 58.1327 31.932 58.5647 31.644C58.9967 31.356 59.2127 30.996 59.2127 30.564C59.2127 30.252 59.0927 30.012 58.8527 29.844C58.6367 29.652 58.2647 29.508 57.7367 29.412L54.5327 28.872C53.0447 28.656 51.8927 28.14 51.0767 27.324C50.2847 26.484 49.8887 25.44 49.8887 24.192C49.8887 23.088 50.2127 22.056 50.8607 21.096C51.5327 20.136 52.5167 19.368 53.8127 18.792C55.1327 18.192 56.7767 17.892 58.7447 17.892C59.8247 17.892 60.9767 18.048 62.2007 18.36C63.4247 18.648 64.5167 19.104 65.4767 19.728L63.7487 23.724C62.9327 23.196 62.0447 22.812 61.0847 22.572C60.1487 22.308 59.2487 22.176 58.3847 22.176C57.4007 22.176 56.6807 22.332 56.2247 22.644C55.7687 22.956 55.5407 23.34 55.5407 23.796C55.5407 24.06 55.6247 24.288 55.7927 24.48C55.9847 24.672 56.2967 24.804 56.7287 24.876L59.9327 25.38C61.5887 25.668 62.8247 26.22 63.6407 27.036C64.4567 27.852 64.8647 28.872 64.8647 30.096C64.8647 32.16 64.0967 33.732 62.5607 34.812C61.0487 35.868 59.0447 36.396 56.5487 36.396ZM76.4241 36.396C73.3761 36.396 71.0721 35.64 69.5121 34.128C67.9521 32.616 67.1721 30.612 67.1721 28.116C67.1721 26.34 67.5561 24.672 68.3241 23.112C69.1161 21.552 70.3041 20.292 71.8881 19.332C73.4721 18.372 75.4641 17.892 77.8641 17.892C79.0641 17.892 80.2161 18.048 81.3201 18.36C82.4481 18.648 83.3841 19.068 84.1281 19.62L82.2921 24.012C81.8361 23.628 81.2481 23.316 80.5281 23.076C79.8081 22.836 79.1001 22.716 78.4041 22.716C77.2521 22.716 76.3281 22.98 75.6321 23.508C74.9601 24.012 74.4681 24.672 74.1561 25.488C73.8681 26.304 73.7241 27.144 73.7241 28.008C73.7241 29.064 74.0121 29.928 74.5881 30.6C75.1641 31.248 76.1241 31.572 77.4681 31.572C78.0441 31.572 78.6681 31.464 79.3401 31.248C80.0361 31.032 80.6601 30.72 81.2121 30.312L82.5081 34.74C81.8121 35.292 80.8881 35.712 79.7361 36C78.5841 36.264 77.4801 36.396 76.4241 36.396ZM90.2264 36.396C89.0744 36.396 88.0424 36.132 87.1304 35.604C86.2184 35.076 85.4864 34.392 84.9344 33.552C84.4064 32.688 84.1424 31.764 84.1424 30.78C84.1424 28.908 84.9464 27.552 86.5544 26.712C88.1624 25.848 90.6584 25.416 94.0424 25.416H96.4904L96.5264 25.092C96.6704 24.3 96.4904 23.676 95.9864 23.22C95.5064 22.764 94.7144 22.536 93.6104 22.536C91.4984 22.536 89.4344 23.112 87.4184 24.264L86.2304 20.016C87.1664 19.392 88.3904 18.888 89.9024 18.504C91.4384 18.096 92.9744 17.892 94.5104 17.892C96.6944 17.892 98.3984 18.288 99.6224 19.08C100.846 19.872 101.662 20.94 102.07 22.284C102.502 23.604 102.586 25.044 102.322 26.604L100.846 36H94.9064L95.3024 33.444C94.7264 34.5 93.9944 35.256 93.1064 35.712C92.2424 36.168 91.2824 36.396 90.2264 36.396ZM92.4584 32.22C93.3944 32.22 94.1624 31.944 94.7624 31.392C95.3624 30.84 95.7344 30.12 95.8784 29.232L95.9864 28.44H94.0424C92.6984 28.44 91.7264 28.596 91.1264 28.908C90.5504 29.196 90.2624 29.676 90.2624 30.348C90.2624 30.948 90.4664 31.416 90.8744 31.752C91.2824 32.064 91.8104 32.22 92.4584 32.22ZM104.495 36L107.303 18.288H113.531L113.027 21.384C113.579 20.352 114.335 19.536 115.295 18.936C116.279 18.336 117.431 17.988 118.751 17.892L120.479 17.784L120.191 23.184L116.195 23.58C114.923 23.7 114.011 24.06 113.459 24.66C112.907 25.26 112.535 26.196 112.343 27.468L111.011 36H104.495ZM130.843 36.396C129.019 36.396 127.531 36.072 126.379 35.424C125.227 34.776 124.423 33.876 123.967 32.724C123.511 31.572 123.403 30.252 123.643 28.764L124.579 23.004H121.267L122.023 18.288H125.335L126.127 13.14H132.535L131.743 18.288H136.855L136.099 23.004H130.987L130.087 28.512C129.943 29.496 130.087 30.204 130.519 30.636C130.975 31.044 131.635 31.248 132.499 31.248C133.075 31.248 133.711 31.14 134.407 30.924L134.587 35.676C134.083 35.916 133.495 36.096 132.823 36.216C132.151 36.336 131.491 36.396 130.843 36.396ZM146.32 36.396C144.424 36.396 142.768 36.06 141.352 35.388C139.936 34.692 138.832 33.72 138.04 32.472C137.248 31.224 136.852 29.772 136.852 28.116C136.852 26.076 137.296 24.288 138.184 22.752C139.096 21.216 140.32 20.028 141.856 19.188C143.392 18.324 145.12 17.892 147.04 17.892C149.056 17.892 150.676 18.324 151.9 19.188C153.148 20.028 154.012 21.18 154.492 22.644C154.972 24.108 155.092 25.728 154.852 27.504L154.708 28.44H142.792C142.84 29.496 143.236 30.3 143.98 30.852C144.724 31.404 145.744 31.68 147.04 31.68C148.024 31.68 148.984 31.548 149.92 31.284C150.88 30.996 151.708 30.6 152.404 30.096L153.736 34.272C152.848 34.944 151.756 35.472 150.46 35.856C149.188 36.216 147.808 36.396 146.32 36.396ZM146.968 22.068C145.888 22.068 145.036 22.392 144.412 23.04C143.812 23.688 143.404 24.48 143.188 25.416H149.992C150.04 24.432 149.812 23.628 149.308 23.004C148.828 22.38 148.048 22.068 146.968 22.068Z" fill="#FFD666"/>
<path d="M80.2462 85L96.1583 59.62H101.414L109.226 85H102.89L101.558 79.852H90.1463L87.1223 85H80.2462ZM97.9943 66.532L93.1343 74.776H100.226L98.0663 66.532H97.9943ZM121.316 91.48L122.72 82.768C122.048 83.608 121.232 84.256 120.271 84.712C119.336 85.168 118.316 85.396 117.212 85.396C115.22 85.396 113.624 84.7 112.424 83.308C111.248 81.916 110.66 80.044 110.66 77.692C110.66 75.604 111.032 73.756 111.776 72.148C112.52 70.516 113.564 69.232 114.908 68.296C116.252 67.36 117.824 66.892 119.624 66.892C120.824 66.892 121.892 67.156 122.828 67.684C123.764 68.188 124.46 68.932 124.916 69.916L125.312 67.288H131.576L127.724 91.48H121.316ZM119.912 80.68C121.112 80.68 122.06 80.14 122.756 79.06C123.452 77.98 123.8 76.612 123.8 74.956C123.8 73.876 123.548 73.048 123.044 72.472C122.564 71.896 121.892 71.608 121.028 71.608C119.804 71.608 118.844 72.148 118.148 73.228C117.452 74.284 117.104 75.652 117.104 77.332C117.104 78.412 117.344 79.24 117.824 79.816C118.328 80.392 119.024 80.68 119.912 80.68ZM138.816 85.396C137.544 85.396 136.464 85.132 135.576 84.604C134.688 84.076 134.052 83.248 133.668 82.12C133.284 80.992 133.236 79.54 133.524 77.764L135.18 67.288H141.588L139.968 77.656C139.656 79.552 140.244 80.5 141.732 80.5C142.668 80.5 143.448 80.164 144.072 79.492C144.696 78.82 145.104 77.884 145.296 76.684L146.772 67.288H153.18L150.372 85H144.108L144.504 82.48C143.88 83.44 143.076 84.172 142.092 84.676C141.108 85.156 140.016 85.396 138.816 85.396ZM157.233 64.228L158.169 58.432H164.901L163.965 64.228H157.233ZM154.101 85L156.909 67.288H163.317L160.509 85H154.101Z" fill="white"/>
</svg>
